<svg xmlns="http://www.w3.org/2000/svg" xmlns:xlink="http://www.w3.org/1999/xlink" width="1024" zoomAndPan="magnify" viewBox="0 0 768 767.999994" height="1024" preserveAspectRatio="xMidYMid meet" version="1.0"><path fill="#000000" d="M 223.03125 192.558594 C 224.746094 192.84375 240.71875 209.515625 242.683594 211.476562 L 283.824219 252.648438 C 293.75 262.519531 303.625 272.4375 313.453125 282.40625 C 317.074219 286.050781 324.148438 292.625 327.265625 296.183594 C 317.585938 309.617188 310.5625 324.417969 307.363281 340.757812 L 188.4375 340.808594 C 179.394531 340.710938 170.007812 341.019531 161.011719 340.703125 C 162.410156 327.257812 164.722656 313.972656 167.945312 300.84375 C 174.125 300.597656 182.453125 300.832031 188.796875 300.828125 L 235.84375 300.859375 L 261.855469 300.796875 C 265.539062 300.789062 273.226562 300.585938 276.585938 301.070312 C 272.351562 297.582031 265.179688 290.054688 261.179688 285.957031 L 241.886719 266.476562 L 214.386719 238.988281 C 209.722656 234.324219 203.988281 228.941406 199.664062 224.089844 C 203.226562 216.558594 216.964844 198.832031 223.03125 192.558594 " fill-opacity="1" fill-rule="nonzero"/><path fill="#000000" d="M 161.503906 384.460938 C 209.261719 384.316406 258.140625 385.074219 305.769531 384.332031 C 308.785156 399.292969 315.554688 418.046875 324.867188 430.210938 C 321.496094 434.328125 315.609375 439.910156 311.710938 443.765625 L 293.332031 462.0625 L 234.628906 520.371094 C 230.191406 524.476562 226.152344 528.964844 221.761719 533.214844 C 212.003906 521.910156 205.8125 513.703125 197.675781 501.054688 C 202.085938 496.324219 206.648438 491.804688 211.261719 487.265625 C 232.511719 466.355469 252.804688 444.320312 274.867188 424.238281 C 272.050781 424.410156 267.382812 424.230469 264.445312 424.230469 L 240.957031 424.214844 L 167.046875 424.28125 C 165.59375 418.722656 160.316406 389.558594 161.503906 384.460938 " fill-opacity="1" fill-rule="nonzero"/><path fill="#000000" d="M 354.554688 461.574219 C 355.8125 461.644531 365.742188 468.367188 367.839844 469.320312 C 378.152344 474.011719 389.953125 478.925781 401.265625 480.257812 C 401.453125 493.785156 401.261719 507.59375 401.273438 521.148438 L 401.390625 573.429688 C 401.324219 590.546875 401.054688 608.429688 401.410156 625.507812 C 389.542969 624.53125 373.578125 622.691406 362.28125 619.671875 L 362.25 549.890625 C 362.25 536.9375 361.820312 521.136719 362.589844 508.496094 C 358.394531 512.390625 354.246094 517.054688 350.121094 521.195312 C 335.746094 536.445312 320.003906 550.929688 305.507812 566.140625 C 298.488281 573.507812 291.21875 580.925781 283.832031 587.90625 C 280.90625 585.535156 276.585938 583.019531 273.402344 580.75 C 265.894531 575.394531 258.523438 569.949219 251.863281 563.558594 L 325.433594 490.214844 L 345.378906 470.148438 C 348.128906 467.421875 351.425781 463.585938 354.554688 461.574219 " fill-opacity="1" fill-rule="nonzero"/><path fill="#000000" d="M 396.179688 104.035156 C 397.269531 103.773438 399.851562 103.519531 400.953125 104.015625 C 402.746094 105.777344 401.777344 117.28125 401.777344 120.285156 C 401.875 131.351562 401.890625 142.417969 401.820312 153.484375 C 401.695312 185.359375 401.746094 217.234375 401.984375 249.109375 C 399.890625 249.839844 395.941406 250.460938 393.449219 251.222656 C 387.875 252.925781 381.566406 254.933594 376.230469 257.199219 C 370.539062 259.617188 364.597656 263.648438 358.925781 266.332031 C 349.589844 257.953125 340.359375 248.105469 331.320312 239.289062 C 311.785156 220.246094 292.757812 200.238281 273.3125 181.160156 C 267.199219 174.808594 261.007812 168.53125 254.742188 162.328125 C 260.585938 156.136719 279.148438 143.765625 287.148438 138.453125 C 291.644531 143.578125 297.566406 149.359375 302.425781 154.273438 C 309.980469 161.988281 317.597656 169.644531 325.277344 177.238281 C 337.6875 189.519531 350 202.382812 362.628906 214.382812 C 362.917969 211.34375 362.714844 206.859375 362.691406 203.710938 L 362.683594 187.304688 L 362.726562 135.433594 C 362.75 126.707031 362.488281 117.632812 362.914062 108.984375 C 374.960938 106.707031 384.035156 105.042969 396.179688 104.035156 " fill-opacity="1" fill-rule="nonzero"/><path fill="#000000" d="M 446.417969 103.492188 C 449.265625 103.988281 454.8125 104.308594 458.003906 104.683594 C 464.308594 105.480469 470.582031 106.488281 476.820312 107.699219 C 479.070312 108.121094 482.519531 108.558594 484.457031 109.5 C 485.453125 112.824219 485.191406 135.980469 485.125 140.898438 C 484.808594 164.992188 485.738281 190.25 484.894531 214.191406 C 497.421875 200.3125 511.453125 187.550781 524.523438 174.246094 L 544.972656 153.53125 C 549.144531 149.257812 555.605469 142.191406 560.242188 138.878906 C 567.671875 143.699219 585.660156 156.3125 591.964844 162.359375 C 587.511719 167.183594 582.265625 172.414062 577.617188 177.101562 C 551.945312 202.027344 527.121094 228.21875 501.585938 253.3125 C 497.058594 257.765625 493.023438 262.464844 488.148438 266.609375 C 472.542969 257.851562 463.949219 253.402344 445.921875 249.226562 C 446.339844 237.730469 445.894531 223.34375 445.894531 211.640625 L 445.949219 134.054688 C 445.953125 129.867188 445.457031 106.230469 446.417969 103.492188 " fill-opacity="1" fill-rule="nonzero"/><path fill="#000000" d="M 475.773438 469.457031 C 477.558594 469.730469 484.824219 478.710938 486.460938 480.578125 L 502.199219 498.355469 L 552.953125 555.4375 C 557.222656 560.316406 561.519531 565.171875 565.84375 570.003906 C 567.925781 572.367188 570.097656 575.183594 572.332031 577.289062 C 562.386719 584.886719 551.167969 594 540.117188 599.933594 C 529.667969 588.617188 519.355469 577.175781 509.191406 565.601562 C 504.671875 560.503906 497.742188 552.054688 492.996094 547.636719 C 488.632812 541.789062 483.121094 536.605469 479.074219 531.09375 C 479.675781 535.609375 479.355469 539.335938 479.359375 543.871094 C 479.4375 552.183594 479.441406 560.492188 479.375 568.804688 C 479.304688 578.679688 479.300781 588.558594 479.367188 598.4375 C 479.386719 601.78125 479.878906 617.789062 478.875 619.761719 C 473.355469 622.585938 446.824219 624.886719 439.960938 625.523438 C 439.929688 621.609375 440.035156 617.484375 440.097656 613.558594 C 440.808594 569.367188 439.273438 524.761719 440.289062 480.605469 C 454.476562 478.457031 462.96875 475.210938 475.773438 469.457031 " fill-opacity="1" fill-rule="nonzero"/></svg>